<svg width="1280" height="840" viewBox="0 0 1280 840" fill="none" xmlns="http://www.w3.org/2000/svg">
  <defs>
    <linearGradient id="bg" x1="0" y1="0" x2="1280" y2="840" gradientUnits="userSpaceOnUse">
      <stop stop-color="#F6F7F3"/>
      <stop offset="1" stop-color="#E8EEE8"/>
    </linearGradient>
    <linearGradient id="glass" x1="0" y1="0" x2="1" y2="1">
      <stop stop-color="#DDE8F0"/>
      <stop offset="1" stop-color="#BFD2E2"/>
    </linearGradient>
  </defs>
  <rect width="1280" height="840" fill="url(#bg)"/>
  <rect x="130" y="190" width="1020" height="500" rx="28" fill="#FDFEFD" stroke="#C9D4CA" stroke-width="4"/>
  <rect x="190" y="250" width="420" height="360" rx="18" fill="#F3F7F3" stroke="#C8D3CA" stroke-width="3"/>
  <rect x="670" y="250" width="420" height="360" rx="18" fill="#F3F7F3" stroke="#C8D3CA" stroke-width="3"/>
  <rect x="250" y="300" width="300" height="240" rx="12" fill="url(#glass)" stroke="#AFC2D1" stroke-width="2"/>
  <rect x="730" y="300" width="300" height="240" rx="12" fill="url(#glass)" stroke="#AFC2D1" stroke-width="2"/>
  <rect x="560" y="390" width="160" height="220" rx="12" fill="#DCE7DE" stroke="#AFC2B3" stroke-width="2"/>
  <rect x="620" y="430" width="40" height="180" fill="#BFD0C3"/>
  <rect x="210" y="670" width="860" height="32" rx="16" fill="#D7E0D8"/>
  <circle cx="248" cy="162" r="28" fill="#1F655C"/>
  <path d="M248 144V180M230 162H266" stroke="#F8FCF9" stroke-width="8" stroke-linecap="round"/>
  <text x="292" y="172" fill="#1E3F58" font-size="46" font-family="Arial, sans-serif" font-weight="700">Jiahui International Hospital</text>
  <text x="292" y="214" fill="#4D6778" font-size="26" font-family="Arial, sans-serif">International patient reception and multidisciplinary clinic</text>
</svg>

