<svg width="1280" height="840" viewBox="0 0 1280 840" fill="none" xmlns="http://www.w3.org/2000/svg">
  <defs>
    <linearGradient id="bg3" x1="0" y1="0" x2="1280" y2="840" gradientUnits="userSpaceOnUse">
      <stop stop-color="#F5F7F6"/>
      <stop offset="1" stop-color="#E9EFEB"/>
    </linearGradient>
    <radialGradient id="iris" cx="0" cy="0" r="1" gradientUnits="userSpaceOnUse" gradientTransform="translate(640 470) rotate(90) scale(130)">
      <stop stop-color="#6FAAC4"/>
      <stop offset="1" stop-color="#336C86"/>
    </radialGradient>
  </defs>
  <rect width="1280" height="840" fill="url(#bg3)"/>
  <rect x="120" y="200" width="1040" height="500" rx="30" fill="#FCFDFC" stroke="#C7D3C8" stroke-width="4"/>
  <rect x="190" y="270" width="900" height="300" rx="24" fill="#F3F8F5" stroke="#C9D7CC" stroke-width="3"/>
  <ellipse cx="640" cy="470" rx="250" ry="130" fill="#E6F0EB" stroke="#B9CDC0" stroke-width="3"/>
  <circle cx="640" cy="470" r="130" fill="url(#iris)" stroke="#2D627A" stroke-width="3"/>
  <circle cx="640" cy="470" r="58" fill="#1B2A37"/>
  <circle cx="678" cy="430" r="18" fill="#F8FEFF" fill-opacity="0.85"/>
  <rect x="260" y="300" width="180" height="80" rx="10" fill="#DCEAF2" stroke="#AFC5D4" stroke-width="2"/>
  <rect x="840" y="300" width="180" height="80" rx="10" fill="#DCEAF2" stroke="#AFC5D4" stroke-width="2"/>
  <rect x="260" y="590" width="760" height="36" rx="18" fill="#D7E2D8"/>
  <circle cx="242" cy="160" r="28" fill="#1F655C"/>
  <path d="M242 143V177M224 160H260" stroke="#F8FCF9" stroke-width="8" stroke-linecap="round"/>
  <text x="286" y="171" fill="#1E3F58" font-size="46" font-family="Arial, sans-serif" font-weight="700">Beijing Tongren Eye Center</text>
  <text x="286" y="214" fill="#4D6778" font-size="26" font-family="Arial, sans-serif">Refractive diagnostics and candidate-first LASIK pathways</text>
</svg>

