<svg width="1280" height="840" viewBox="0 0 1280 840" fill="none" xmlns="http://www.w3.org/2000/svg">
  <defs>
    <linearGradient id="bg2" x1="0" y1="0" x2="1280" y2="840" gradientUnits="userSpaceOnUse">
      <stop stop-color="#F9F8F4"/>
      <stop offset="1" stop-color="#EEF2EC"/>
    </linearGradient>
  </defs>
  <rect width="1280" height="840" fill="url(#bg2)"/>
  <rect x="90" y="180" width="1100" height="530" rx="34" fill="#FFFFFF" stroke="#CCD5CC" stroke-width="4"/>
  <rect x="170" y="250" width="260" height="390" rx="16" fill="#F5F8F3" stroke="#CBD5CB" stroke-width="2"/>
  <rect x="470" y="250" width="340" height="390" rx="16" fill="#F4F8F5" stroke="#CBD5CB" stroke-width="2"/>
  <rect x="850" y="250" width="260" height="390" rx="16" fill="#F5F8F3" stroke="#CBD5CB" stroke-width="2"/>
  <rect x="520" y="420" width="240" height="220" rx="12" fill="#DEE8DF" stroke="#B6C8B8" stroke-width="2"/>
  <rect x="610" y="460" width="60" height="180" fill="#C6D8C8"/>
  <g fill="#D8E6F0" stroke="#ABC2D1" stroke-width="2">
    <rect x="200" y="280" width="200" height="140" rx="10"/>
    <rect x="200" y="450" width="200" height="140" rx="10"/>
    <rect x="500" y="280" width="120" height="110" rx="10"/>
    <rect x="660" y="280" width="120" height="110" rx="10"/>
    <rect x="880" y="280" width="200" height="140" rx="10"/>
    <rect x="880" y="450" width="200" height="140" rx="10"/>
  </g>
  <rect x="180" y="690" width="920" height="28" rx="14" fill="#D7E1D7"/>
  <circle cx="236" cy="140" r="26" fill="#1F655C"/>
  <path d="M236 124V156M220 140H252" stroke="#F8FCF9" stroke-width="7" stroke-linecap="round"/>
  <text x="278" y="150" fill="#1E3F58" font-size="44" font-family="Arial, sans-serif" font-weight="700">Beijing United Family Hospital</text>
  <text x="278" y="191" fill="#4D6778" font-size="24" font-family="Arial, sans-serif">24/7 international clinic and integrated specialty pathways</text>
</svg>

