<svg width="1200" height="760" viewBox="0 0 1200 760" fill="none" xmlns="http://www.w3.org/2000/svg">
  <rect width="1200" height="760" rx="36" fill="#F4F6F2"/>
  <rect x="86" y="92" width="1028" height="576" rx="30" fill="#FFFDF8" stroke="#D4DBD2" stroke-width="3"/>
  <rect x="152" y="160" width="604" height="438" rx="24" fill="#F1F6F2" stroke="#C7D4CC" stroke-width="2"/>
  <rect x="194" y="216" width="520" height="16" rx="8" fill="#1F655C"/>
  <rect x="194" y="250" width="468" height="12" rx="6" fill="#5D7387" opacity="0.48"/>
  <rect x="194" y="278" width="396" height="12" rx="6" fill="#5D7387" opacity="0.4"/>
  <rect x="194" y="326" width="254" height="106" rx="16" fill="#FFFFFF" stroke="#D7DED6"/>
  <rect x="194" y="452" width="254" height="106" rx="16" fill="#FFFFFF" stroke="#D7DED6"/>
  <rect x="460" y="326" width="254" height="106" rx="16" fill="#FFFFFF" stroke="#D7DED6"/>
  <rect x="460" y="452" width="254" height="106" rx="16" fill="#FFFFFF" stroke="#D7DED6"/>
  <rect x="792" y="160" width="256" height="438" rx="24" fill="#F9F3E8" stroke="#E0D2B2" stroke-width="2"/>
  <rect x="828" y="214" width="184" height="14" rx="7" fill="#B88F4F"/>
  <rect x="828" y="244" width="144" height="12" rx="6" fill="#8B734C" opacity="0.45"/>
  <rect x="828" y="324" width="184" height="116" rx="14" fill="#FFFDF8" stroke="#E6D9BC"/>
  <rect x="828" y="470" width="184" height="86" rx="14" fill="#1F655C"/>
  <rect x="852" y="500" width="136" height="16" rx="8" fill="#FFFFFF" opacity="0.9"/>
</svg>
