<svg width="1200" height="760" viewBox="0 0 1200 760" fill="none" xmlns="http://www.w3.org/2000/svg">
  <rect width="1200" height="760" rx="36" fill="#F5F6F3"/>
  <rect x="96" y="96" width="1008" height="568" rx="30" fill="#FFFDF8" stroke="#D5DCD4" stroke-width="3"/>
  <rect x="166" y="160" width="406" height="430" rx="22" fill="#F0F6F3" stroke="#C7D4CE" stroke-width="2"/>
  <rect x="212" y="216" width="316" height="18" rx="9" fill="#1F655C"/>
  <rect x="212" y="254" width="258" height="12" rx="6" fill="#5D7387" opacity="0.5"/>
  <rect x="212" y="280" width="286" height="12" rx="6" fill="#5D7387" opacity="0.44"/>
  <rect x="212" y="306" width="242" height="12" rx="6" fill="#5D7387" opacity="0.36"/>
  <rect x="212" y="350" width="312" height="176" rx="16" fill="#FFFFFF" stroke="#D5DDD4"/>
  <rect x="628" y="160" width="406" height="198" rx="22" fill="#F9F3E7" stroke="#E0D2B3" stroke-width="2"/>
  <rect x="674" y="214" width="314" height="16" rx="8" fill="#B88F4F"/>
  <rect x="674" y="246" width="270" height="12" rx="6" fill="#8A744F" opacity="0.42"/>
  <rect x="674" y="272" width="226" height="12" rx="6" fill="#8A744F" opacity="0.35"/>
  <rect x="628" y="392" width="406" height="198" rx="22" fill="#F0F5F8" stroke="#CCD8E0" stroke-width="2"/>
  <circle cx="698" cy="486" r="28" fill="#20445F"/>
  <path d="M684 486H712" stroke="#FFF" stroke-width="6" stroke-linecap="round"/>
  <rect x="754" y="450" width="248" height="14" rx="7" fill="#2E475D" opacity="0.55"/>
  <rect x="754" y="478" width="220" height="14" rx="7" fill="#2E475D" opacity="0.42"/>
  <rect x="754" y="506" width="184" height="14" rx="7" fill="#2E475D" opacity="0.34"/>
</svg>
