<svg width="1200" height="760" viewBox="0 0 1200 760" fill="none" xmlns="http://www.w3.org/2000/svg">
  <rect width="1200" height="760" rx="36" fill="#F5F7F1"/>
  <rect x="80" y="84" width="1040" height="592" rx="28" fill="#FFFDF8" stroke="#D6DCCF" stroke-width="3"/>
  <rect x="142" y="156" width="360" height="442" rx="20" fill="#F4F8F2" stroke="#C8D3C3" stroke-width="2"/>
  <rect x="172" y="208" width="300" height="18" rx="9" fill="#1F655C" opacity="0.9"/>
  <rect x="172" y="248" width="252" height="14" rx="7" fill="#6C7E8B" opacity="0.55"/>
  <rect x="172" y="278" width="280" height="14" rx="7" fill="#6C7E8B" opacity="0.5"/>
  <rect x="172" y="308" width="232" height="14" rx="7" fill="#6C7E8B" opacity="0.45"/>
  <rect x="172" y="356" width="190" height="72" rx="14" fill="#E8F4EF"/>
  <path d="M204 389L230 416L332 330" stroke="#1F655C" stroke-width="14" stroke-linecap="round" stroke-linejoin="round"/>
  <rect x="544" y="156" width="496" height="212" rx="20" fill="#F9F4E8" stroke="#E0D0AE" stroke-width="2"/>
  <rect x="580" y="206" width="428" height="16" rx="8" fill="#B88F4F" opacity="0.85"/>
  <rect x="580" y="244" width="360" height="14" rx="7" fill="#806A45" opacity="0.45"/>
  <rect x="580" y="274" width="298" height="14" rx="7" fill="#806A45" opacity="0.35"/>
  <rect x="544" y="404" width="496" height="194" rx="20" fill="#EFF5F4" stroke="#CBD8D2" stroke-width="2"/>
  <circle cx="608" cy="500" r="34" fill="#1F655C"/>
  <path d="M592 500H624M608 484V516" stroke="#FFFDF8" stroke-width="7" stroke-linecap="round"/>
  <rect x="670" y="462" width="322" height="14" rx="7" fill="#2E475D" opacity="0.55"/>
  <rect x="670" y="492" width="280" height="14" rx="7" fill="#2E475D" opacity="0.45"/>
  <rect x="670" y="522" width="240" height="14" rx="7" fill="#2E475D" opacity="0.35"/>
</svg>
