<svg width="1200" height="900" viewBox="0 0 1200 900" fill="none" xmlns="http://www.w3.org/2000/svg">
  <rect width="1200" height="900" rx="40" fill="#F4F7F2"/>
  <rect x="84" y="94" width="1032" height="712" rx="34" fill="#FFFDF8" stroke="#D2DBD1" stroke-width="3"/>
  <rect x="152" y="168" width="512" height="564" rx="28" fill="#F0F6F3" stroke="#C7D5CD" stroke-width="2"/>
  <rect x="204" y="236" width="410" height="18" rx="9" fill="#1F655C"/>
  <rect x="204" y="272" width="352" height="12" rx="6" fill="#5D7387" opacity="0.52"/>
  <rect x="204" y="300" width="382" height="12" rx="6" fill="#5D7387" opacity="0.4"/>
  <rect x="204" y="356" width="410" height="336" rx="18" fill="#FFFFFF" stroke="#D7DFD6"/>
  <rect x="238" y="398" width="342" height="14" rx="7" fill="#20445F" opacity="0.58"/>
  <rect x="238" y="428" width="286" height="12" rx="6" fill="#20445F" opacity="0.42"/>
  <rect x="238" y="458" width="246" height="12" rx="6" fill="#20445F" opacity="0.32"/>
  <rect x="238" y="520" width="342" height="130" rx="14" fill="#EDF5EF"/>
  <circle cx="793" cy="314" r="120" fill="#1F655C" opacity="0.11"/>
  <circle cx="793" cy="314" r="72" fill="#1F655C" opacity="0.24"/>
  <circle cx="793" cy="314" r="30" fill="#1F655C"/>
  <rect x="702" y="474" width="364" height="258" rx="24" fill="#F9F3E8" stroke="#E1D4B6" stroke-width="2"/>
  <rect x="748" y="530" width="272" height="14" rx="7" fill="#B88F4F"/>
  <rect x="748" y="560" width="236" height="12" rx="6" fill="#8E754C" opacity="0.46"/>
  <rect x="748" y="586" width="192" height="12" rx="6" fill="#8E754C" opacity="0.35"/>
  <rect x="748" y="632" width="272" height="56" rx="12" fill="#1F655C"/>
  <rect x="780" y="652" width="208" height="16" rx="8" fill="#FFFFFF" opacity="0.92"/>
</svg>
