<svg width="1200" height="760" viewBox="0 0 1200 760" fill="none" xmlns="http://www.w3.org/2000/svg">
  <rect width="1200" height="760" rx="36" fill="#F3F6F3"/>
  <rect x="88" y="90" width="1024" height="580" rx="30" fill="#FFFDF8" stroke="#D4DBD3" stroke-width="3"/>
  <path d="M360 178L602 108L844 178V336C844 490 740 621 602 664C464 621 360 490 360 336V178Z" fill="#EEF5F2" stroke="#C8D5CE" stroke-width="3"/>
  <path d="M470 324L560 412L734 246" stroke="#1F655C" stroke-width="22" stroke-linecap="round" stroke-linejoin="round"/>
  <rect x="164" y="220" width="156" height="74" rx="37" fill="#1F655C"/>
  <text x="194" y="266" fill="#FFF" font-family="sans-serif" font-size="34" font-weight="700">15m</text>
  <rect x="880" y="220" width="156" height="74" rx="37" fill="#20445F"/>
  <text x="913" y="266" fill="#FFF" font-family="sans-serif" font-size="34" font-weight="700">2h</text>
  <rect x="196" y="500" width="808" height="112" rx="20" fill="#F0F4F8" stroke="#CCD6DF" stroke-width="2"/>
  <rect x="252" y="540" width="696" height="14" rx="7" fill="#2E475D" opacity="0.48"/>
</svg>
