<svg width="1200" height="900" viewBox="0 0 1200 900" fill="none" xmlns="http://www.w3.org/2000/svg">
  <rect width="1200" height="900" rx="40" fill="#F4F7F2"/>
  <rect x="84" y="94" width="1032" height="712" rx="34" fill="#FFFDF8" stroke="#D2DBD1" stroke-width="3"/>

  <rect x="152" y="168" width="560" height="564" rx="28" fill="#F0F6F3" stroke="#C7D5CD" stroke-width="2"/>
  <rect x="204" y="236" width="456" height="18" rx="9" fill="#1F655C"/>
  <rect x="204" y="272" width="332" height="12" rx="6" fill="#5D7387" opacity="0.52"/>
  <rect x="204" y="300" width="402" height="12" rx="6" fill="#5D7387" opacity="0.4"/>

  <rect x="204" y="356" width="456" height="166" rx="18" fill="#FFFFFF" stroke="#D7DFD6"/>
  <rect x="236" y="392" width="284" height="14" rx="7" fill="#20445F" opacity="0.58"/>
  <rect x="236" y="422" width="332" height="12" rx="6" fill="#20445F" opacity="0.42"/>
  <rect x="236" y="450" width="256" height="12" rx="6" fill="#20445F" opacity="0.32"/>
  <rect x="236" y="478" width="358" height="28" rx="14" fill="#1F655C" opacity="0.14"/>

  <rect x="204" y="552" width="456" height="180" rx="18" fill="#FFFFFF" stroke="#D7DFD6"/>
  <rect x="236" y="590" width="188" height="14" rx="7" fill="#B88F4F"/>
  <rect x="236" y="620" width="314" height="12" rx="6" fill="#8E754C" opacity="0.46"/>
  <rect x="236" y="646" width="268" height="12" rx="6" fill="#8E754C" opacity="0.35"/>

  <rect x="752" y="200" width="314" height="250" rx="24" fill="#F9F3E8" stroke="#E1D4B6" stroke-width="2"/>
  <rect x="792" y="248" width="234" height="14" rx="7" fill="#B88F4F"/>
  <rect x="792" y="278" width="202" height="12" rx="6" fill="#8E754C" opacity="0.46"/>
  <rect x="792" y="304" width="168" height="12" rx="6" fill="#8E754C" opacity="0.35"/>
  <rect x="792" y="342" width="234" height="74" rx="14" fill="#1F655C" opacity="0.12"/>

  <rect x="752" y="488" width="314" height="244" rx="24" fill="#FFFFFF" stroke="#D7DFD6" stroke-width="2"/>
  <rect x="792" y="540" width="234" height="14" rx="7" fill="#20445F" opacity="0.58"/>
  <rect x="792" y="570" width="196" height="12" rx="6" fill="#20445F" opacity="0.42"/>
  <rect x="792" y="596" width="162" height="12" rx="6" fill="#20445F" opacity="0.32"/>

  <circle cx="909" cy="634" r="56" fill="#1F655C" opacity="0.12"/>
  <circle cx="909" cy="634" r="30" fill="#1F655C" opacity="0.26"/>
  <circle cx="909" cy="634" r="12" fill="#1F655C"/>
</svg>

