<svg width="1200" height="760" viewBox="0 0 1200 760" fill="none" xmlns="http://www.w3.org/2000/svg">
  <rect width="1200" height="760" rx="36" fill="#F4F7F4"/>
  <rect x="84" y="90" width="1032" height="580" rx="30" fill="#FFFDF9" stroke="#D3DBD2" stroke-width="3"/>
  <rect x="146" y="152" width="910" height="104" rx="20" fill="#EEF5F1" stroke="#C8D6CE" stroke-width="2"/>
  <rect x="190" y="190" width="364" height="14" rx="7" fill="#1F655C"/>
  <rect x="586" y="188" width="214" height="18" rx="9" fill="#B88F4F"/>
  <rect x="820" y="188" width="188" height="18" rx="9" fill="#1F655C" opacity="0.8"/>
  <rect x="146" y="286" width="910" height="104" rx="20" fill="#F6F8F4" stroke="#D8DED6" stroke-width="2"/>
  <rect x="190" y="324" width="364" height="14" rx="7" fill="#2E475D" opacity="0.58"/>
  <rect x="586" y="322" width="214" height="18" rx="9" fill="#B88F4F" opacity="0.85"/>
  <rect x="820" y="322" width="188" height="18" rx="9" fill="#1F655C" opacity="0.72"/>
  <rect x="146" y="420" width="910" height="186" rx="20" fill="#F2F7FA" stroke="#CFD9E1" stroke-width="2"/>
  <circle cx="220" cy="513" r="36" fill="#20445F"/>
  <path d="M205 513L220 528L248 496" stroke="#FFF" stroke-width="8" stroke-linecap="round" stroke-linejoin="round"/>
  <rect x="288" y="474" width="672" height="16" rx="8" fill="#2E475D" opacity="0.52"/>
  <rect x="288" y="506" width="594" height="14" rx="7" fill="#2E475D" opacity="0.41"/>
  <rect x="288" y="536" width="520" height="14" rx="7" fill="#2E475D" opacity="0.33"/>
</svg>
